<svg width="0" height="0" class="hidden">
  <symbol xmlns="http://www.w3.org/2000/svg" xmlns:xlink="http://www.w3.org/1999/xlink" viewBox="0 0 6.49 6.92" id="sound">
    <defs>
      <linearGradient id="linear-gradient" x1="3.25" y1="6.58" x2="3.25" gradientUnits="userSpaceOnUse">
        <stop offset="0" stop-color="#bd1c8a"></stop>
        <stop offset="1" stop-color="#961756"></stop>
      </linearGradient>
    </defs>
    <title>Asset 3</title>
    <g>
      <g id="Layer_2">
        <g id="Layer_1-2">
          <path d="M3.39,0,1.25,2H1L.05,2,0,3.33.05,4.57l1,0h.16l2.14,2,.08-.28,0-2.12a1,1,0,0,0,.65-.87.8.8,0,0,0-.64-.86V.29L3.39,0ZM4.93.61A3,3,0,0,1,6.07,1.75a3.12,3.12,0,0,1,.42,1.56,3.08,3.08,0,0,1-.42,1.55A3.1,3.1,0,0,1,5,6l-.26-.22-.09-.17A2.6,2.6,0,0,0,6,3.31,2.6,2.6,0,0,0,4.73,1.08L4.82.74,4.93.61Zm-.45.93a2,2,0,0,1,.7.72,2.14,2.14,0,0,1,.28,1.05,2.08,2.08,0,0,1-.28,1,2.05,2.05,0,0,1-.76.76L4.19,4.8l0-.13a1.51,1.51,0,0,0,.58-.57A1.56,1.56,0,0,0,5,3.31a1.51,1.51,0,0,0-.21-.79,1.47,1.47,0,0,0-.58-.58l.08-.13.24-.27Z"></path>
          <path d="M6.07,4.86A3.1,3.1,0,0,1,5,6l-.26-.22-.09-.17,0,.31L4.8,6l.26.22a2.7,2.7,0,0,0,1-1,3.12,3.12,0,0,0,.42-1.56,1.62,1.62,0,0,0,0-.22,2.92,2.92,0,0,1-.41,1.33ZM4.16,2.39A1.47,1.47,0,0,1,4.74,3a1.56,1.56,0,0,1,.2.56,1.62,1.62,0,0,0,0-.22,1.51,1.51,0,0,0-.21-.79,1.47,1.47,0,0,0-.58-.58v.45Zm.57-.86A2.6,2.6,0,0,1,6,3.53a1.62,1.62,0,0,0,0-.22A2.6,2.6,0,0,0,4.73,1.08v.45ZM4.16,5.12l0,.12.23.24a1.85,1.85,0,0,0,1-1.73,1.62,1.62,0,0,0,0-.22,2,2,0,0,1-.27.82,2.05,2.05,0,0,1-.76.76L4.19,4.8l0-.13v.45ZM.1,4.94l1,.1h.16L3.39,6.92l.09-.29V6.3l-.08.28-2.14-2H1.09l-1,0,.05.37ZM4.16,3.31a1,1,0,0,1-.65.87v.45a1,1,0,0,0,.66-.88,2.35,2.35,0,0,0,0-.46Z"></path>
          <path d="M4.93.94A3,3,0,0,1,6.07,2.08a3.09,3.09,0,0,1,.42,1.39V3.31a3.12,3.12,0,0,0-.42-1.56A3,3,0,0,0,4.93.61L4.82.74l-.09.34.07,0,0-.06L4.93.94ZM3.39,0,1.25,2H1L.05,2,0,3.33v.16l0-1.16.92,0h.28l2.14-2,.13.29V2.78a.83.83,0,0,1,.63.62s0-.06,0-.09a.81.81,0,0,0-.64-.86V.29L3.39,0ZM4.48,1.54l-.24.27-.08.13a.91.91,0,0,1,.16.11l.16-.18a2,2,0,0,1,.7.72,2.12,2.12,0,0,1,.28.88V3.31a2.08,2.08,0,0,0-.28-1,2,2,0,0,0-.7-.73Z"></path>
        </g>
      </g>
    </g>
  </symbol>
</svg>