<?xml version="1.0" encoding="utf-8"?>
<!-- Generator: Adobe Illustrator 26.3.1, SVG Export Plug-In . SVG Version: 6.00 Build 0)  -->
<svg version="1.1" id="Слой_1" xmlns="http://www.w3.org/2000/svg" xmlns:xlink="http://www.w3.org/1999/xlink" x="0px" y="0px"
	 viewBox="0 0 402 402" style="enable-background:new 0 0 402 402;" xml:space="preserve">
<g>
	<g>
		<circle cx="201" cy="129.5" r="72.5"/>
	</g>
	<g>
		<path d="M201,14c49.9,0,96.9,19.5,132.2,54.8C368.5,104.1,388,151.1,388,201s-19.5,96.9-54.8,132.2C297.9,368.5,250.9,388,201,388
			s-96.9-19.5-132.2-54.8C33.5,297.9,14,250.9,14,201s19.5-96.9,54.8-132.2C104.1,33.5,151.1,14,201,14 M201,0C90,0,0,90,0,201
			s90,201,201,201s201-90,201-201S312,0,201,0L201,0z"/>
	</g>
	<path d="M201.6,212.2c-63.3,0-116,45.6-117.2,107.9c-0.1,4.3,7.4,13.3,18.9,19.3c19,10,43.4,23,98.3,23s78-13,97-23
		c11.5-6.1,19-15,18.9-19.3c-1.1-62.3-53.9-107.9-117.2-107.9"/>
</g>
</svg>
