<?xml version="1.0" encoding="utf-8"?>
<!-- Generator: Adobe Illustrator 26.3.1, SVG Export Plug-In . SVG Version: 6.00 Build 0)  -->
<svg version="1.1" id="Слой_1" xmlns="http://www.w3.org/2000/svg" xmlns:xlink="http://www.w3.org/1999/xlink" x="0px" y="0px"
	 viewBox="0 0 200 200" style="enable-background:new 0 0 200 200;" xml:space="preserve">
<style type="text/css">
	.st0{fill:#FEFEFE;}
</style>
<g>
	<path class="st0" d="M160.1,95.5c-0.2-3.7-1.2-7-2.1-10.3c-4.4-15.5-12-29-24.7-39.2C110,27.2,78.5,30.5,58.6,53.7
		c-9.9,11.6-15.9,25-18.7,39.8c-0.1,0.5-0.2,1-0.3,1.6c2.4,0.2,4.5-1.1,6.9-1c3.9,0.1,7.8,0,11.7,0c3.2,0,4.7,1.4,4.7,4.5
		c0,15.6,0,31.3,0,46.9c0,2.7-1.3,4.3-3.8,4.3c-5.1,0.1-10.2,0.5-15.3-0.3c-7-1.1-13-7.3-13.1-14.4c-0.1-13.2-1.1-26.5,1-39.6
		C35.1,73,44.4,53.2,62.9,38.9c25.4-19.7,59.7-16.7,82.1,7c14.4,15.3,21.8,33.8,23.9,54.5c1.2,11.4,0.6,22.8,0.5,34.2
		c-0.1,8.6-6.9,15.1-15.7,15.5c-4,0.2-7.9,0.1-11.9,0c-3.2-0.1-4.5-1.4-4.5-4.7c0-15.5,0-30.9,0-46.4c0-3.3,1.4-4.8,4.7-4.7
		C147.9,94.4,154,93.3,160.1,95.5z"/>
	<path class="st0" d="M173.4,121.8c-0.1-3.7,0.3-8.8-0.2-13.9c-0.2-1.5,0.5-1.5,1.6-1.4c5.3,0.6,9.8,5.6,10.1,11.5
		c0.1,2.8,0.1,5.5,0,8.3c-0.3,5.6-4.5,10.5-9.6,11.4c-1.6,0.3-2.6,0.1-2.1-1.9c0.1-0.6,0.1-1.2,0.1-1.8
		C173.4,130.4,173.4,126.8,173.4,121.8z"/>
	<path class="st0" d="M15,122.2c0-2.3-0.2-4.6,0.5-6.9c1.2-4.5,5.3-8.2,9.6-8.8c1.4-0.2,1.7,0,1.6,1.6c-0.5,9.3-0.4,18.6,0,27.9
		c0.1,1.9-0.6,2-2,1.7c-5.1-0.8-9.3-5.7-9.6-11.3C15,125,15,123.6,15,122.2z"/>
</g>
</svg>
