<svg width="0" height="0" class="hidden">
  <symbol xmlns="http://www.w3.org/2000/svg" xmlns:xlink="http://www.w3.org/1999/xlink" viewBox="0 0 7.51 7.51" id="plus">
    <defs>
      <linearGradient id="linear-gradient" x1="3.75" y1="6.72" x2="3.75" y2="0.39" gradientTransform="translate(-1.56 3.75) rotate(-45)" gradientUnits="userSpaceOnUse">
        <stop offset="0" stop-color="#bd1c8a"></stop>
        <stop offset="1" stop-color="#961756"></stop>
      </linearGradient>
    </defs>
    <title>Asset 8</title>
    <g>
      <g id="Layer_2">
        <g id="Layer_1-2">
          <path d="M4.76,7.51V4.76H7.51V3l-.29-.28V4.48H4.48V7.22H2.75L3,7.51Zm-2-3H0l.29.28H2.75V4.48ZM4.48,2.75h.28V.29L4.48,0V2.75Z"></path>
          <polygon points="2.75 7.22 4.48 7.22 4.48 4.48 7.22 4.48 7.22 2.75 4.48 2.75 4.48 0 2.75 0 2.75 2.75 0 2.75 0 4.48 2.75 4.48 2.75 7.22 2.75 7.22"></polygon>
          <path d="M4.87,3.15H7.22v-.4H4.48l.39.4ZM2.75,4.48V7.22h.4V4.87l-.4-.39ZM.4,3.15H3.15V.4H4.48V0H2.75V2.75H0V4.48H.4V3.15Z"></path>
        </g>
      </g>
    </g>
  </symbol>
</svg>