<?xml version="1.0" encoding="utf-8"?>
<!-- Generator: Adobe Illustrator 26.0.3, SVG Export Plug-In . SVG Version: 6.00 Build 0)  -->
<svg version="1.1" id="Layer_1" xmlns="http://www.w3.org/2000/svg" xmlns:xlink="http://www.w3.org/1999/xlink" x="0px" y="0px"
	 width="552.8px" height="198.8px" viewBox="0 0 552.8 198.8" style="enable-background:new 0 0 552.8 198.8;" xml:space="preserve"
	>
<style type="text/css">
	.st0{clip-path:url(#SVGID_00000129884678316267086510000002643273637868192150_);}
	.st1{fill:none;stroke:#000000;stroke-width:1;stroke-miterlimit:9.9996;}
</style>
<path d="M364.9,52.7c-3.6,6.1-3.9,22.8-3,25c-3.3,4.9-7.9,8.7-13.3,11c-5.7,2.5-12.9,3.8-21.5,3.8c-15.2,0-25.7-2.9-31.6-8.8
	s-9.4-13.3-10.1-22.3l26.3-1.7c0.6,4.3,1.7,7.5,3.5,9.8c2.9,3.6,6.9,5.4,12.2,5.4c3.9,0,7-0.9,9.1-2.8c2-1.5,3.2-3.9,3.2-6.4
	c0-2.4-1.1-4.7-3-6.2c-2-1.8-6.7-3.6-14.1-5.2c-12.1-2.7-20.8-6.3-25.9-10.9c-5.1-4.3-8-10.6-7.8-17.3c0-4.6,1.4-9.2,4-13
	c3-4.3,7.1-7.7,12-9.6c5.3-2.3,12.7-3.5,22-3.5C338.3,0,347,2.1,353,6.4c6,4.2,9.6,11,10.7,20.3l-26,1.5c-0.7-4-2.1-6.9-4.4-8.8
	s-5.3-2.8-9.2-2.8c-3.2,0-5.6,0.7-7.2,2c-1.5,1.2-2.5,3-2.4,5c0,1.5,0.8,2.9,2,3.8c1.3,1.2,4.4,2.3,9.3,3.3
	c12.1,2.6,20.7,5.2,26,7.9c5.3,2.7,9.1,6,11.4,9.9C364.4,50.6,364.3,50.3,364.9,52.7 M6.3,91V1.6h46.1c8.5,0,15.1,0.7,19.6,2.2
	c4.4,1.4,8.3,4.3,10.9,8.2c2.9,4.3,4.3,9.3,4.2,14.5c0.3,8.8-4.2,17.2-11.9,21.6c-3,1.7-6.3,2.9-9.7,3.5c2.5,0.7,5,1.9,7.2,3.3
	c1.7,1.4,3.1,3,4.4,4.7c1.5,1.7,2.8,3.6,3.9,5.6l13.4,25.9H63L48.2,63.6c-1.9-3.5-3.5-5.8-5-6.9c-2-1.4-4.4-2.1-6.8-2.1H34v36.3
	L6.3,91L6.3,91z M34,37.8h11.7c2.5-0.2,4.9-0.6,7.3-1.2c1.8-0.3,3.4-1.3,4.5-2.8c2.7-3.6,2.3-8.7-1-11.8c-1.8-1.5-5.3-2.3-10.3-2.3
	H34V37.8z M0,167.6l26.3-1.7c0.6,4.3,1.7,7.5,3.5,9.8c2.8,3.6,6.9,5.5,12.2,5.5c3.9,0,7-0.9,9.1-2.8c2-1.6,3.2-3.9,3.2-6.4
	c0-2.4-1.1-4.7-3-6.2c-2-1.8-6.7-3.6-14.2-5.2c-12.1-2.7-20.8-6.3-25.9-10.9c-5.1-4.3-8-10.6-7.8-17.3c0-4.6,1.4-9.2,4-13
	c3-4.3,7.1-7.7,12-9.6c5.3-2.3,12.7-3.5,22-3.5c11.4,0,20.1,2.1,26.1,6.4s9.5,11,10.6,20.3l-26,1.5c-0.7-4-2.1-6.9-4.4-8.8
	c-2.2-1.9-5.3-2.8-9.2-2.7c-3.2,0-5.6,0.7-7.2,2.1c-1.6,1.2-2.5,3-2.4,5c0,1.5,0.8,2.9,2,3.8c1.3,1.2,4.4,2.3,9.3,3.3
	c12.1,2.6,20.7,5.2,26,7.9s9.1,6,11.4,9.9c2.4,4,3.6,8.6,3.6,13.2c0,5.6-1.7,11.1-4.8,15.8c-3.3,4.9-7.9,8.7-13.3,11
	c-5.7,2.5-12.9,3.8-21.5,3.8c-15.2,0-25.7-2.9-31.6-8.8C4.1,184,0.8,176.6,0,167.6L0,167.6z"/>
<path d="M133,160.6l24.2,7.3c-1.3,6.1-4,11.9-7.7,17c-3.4,4.5-7.9,8-13,10.3c-5.2,2.3-11.8,3.5-19.8,3.5c-9.7,0-17.7-1.4-23.8-4.2
	c-6.2-2.8-11.5-7.8-16-14.9c-4.5-7.1-6.7-16.2-6.7-27.3c0-14.8,3.9-26.2,11.8-34.1s19-11.9,33.4-11.9c11.3,0,20.1,2.3,26.6,6.8
	c6.4,4.6,11.2,11.6,14.4,21l-24.4,5.4c-0.6-2.1-1.5-4.2-2.7-6c-1.5-2.1-3.4-3.7-5.7-4.9c-2.3-1.2-4.9-1.7-7.5-1.7
	c-6.3,0-11.1,2.5-14.4,7.6c-2.5,3.7-3.8,9.6-3.8,17.6c0,9.9,1.5,16.7,4.5,20.4s7.2,5.5,12.7,5.5c5.3,0,9.3-1.5,12-4.4
	C129.8,170.5,131.8,166.2,133,160.6L133,160.6z M189.5,107.8h27.6v31.3h30.2v-31.3h27.8v89.4h-27.8V161h-30.2v36.2h-27.6V107.8z"/>
<path d="M271.3,152.5c0-14.6,4.1-26,12.2-34.1s19.5-12.2,34-12.2c14.9,0,26.3,4,34.4,12s12.1,19.2,12.1,33.6c0,10.5-1.8,19-5.3,25.7
	c-3.4,6.6-8.7,12-15.2,15.6c-6.7,3.7-15,5.6-24.9,5.6c-10.1,0-18.4-1.6-25-4.8c-6.8-3.4-12.4-8.7-16.1-15.2
	C273.4,171.7,271.3,163,271.3,152.5z M298.9,152.6c0,9,1.7,15.5,5,19.5c3.3,3.9,7.9,5.9,13.7,5.9c5.9,0,10.5-1.9,13.8-5.8
	c3.3-3.9,4.9-10.8,4.9-20.8c0-8.4-1.7-14.6-5.1-18.4c-3.4-3.9-8-5.8-13.8-5.8c-5.1-0.2-10,2-13.4,5.9S298.9,143.5,298.9,152.6
	L298.9,152.6z"/>
<path d="M445.8,106.5c11.4,1.1,20.4,5,27.1,11.7c8,8,12.1,19.2,12.1,33.6c0,10.5-1.8,19-5.3,25.7c-3.4,6.6-8.7,12-15.2,15.6
	c-6.7,3.7-15,5.6-24.9,5.6c-10.1,0-18.4-1.6-25-4.8c-6.8-3.4-12.4-8.7-16.1-15.2c-4.1-7-6.2-15.7-6.2-26.2c0-14.6,4.1-26,12.2-34.1
	c0.4-0.4,0.8-0.8,1.3-1.2c0,0,8.8,0.9,17.8-1.5C437,112.3,445.8,106.5,445.8,106.5z M419.9,152.6c0,9,1.7,15.5,5,19.5
	c3.3,3.9,7.9,5.9,13.7,5.9c5.9,0,10.5-1.9,13.8-5.8c3.3-3.9,4.9-10.8,4.9-20.8c0-8.4-1.7-14.6-5.1-18.4c-3.4-3.9-8-5.8-13.8-5.8
	c-5.1-0.2-10.1,2-13.4,5.9C421.6,137,419.9,143.5,419.9,152.6L419.9,152.6z"/>
<path d="M482.1,107.8h27.6v67.4h43.1v22H482v-89.4C482,107.8,482.1,107.8,482.1,107.8z"/>
<g>
	<g>
		<defs>
			
				<ellipse id="SVGID_1_" transform="matrix(0.7986 -0.6018 0.6018 0.7986 47.8507 265.3789)" cx="420.5" cy="61.2" rx="63" ry="51.8"/>
		</defs>
		<clipPath id="SVGID_00000144336048023293908620000012369996468817099698_">
			<use xlink:href="#SVGID_1_"  style="overflow:visible;"/>
		</clipPath>
		<g style="clip-path:url(#SVGID_00000144336048023293908620000012369996468817099698_);">
			<g id="Layer_2_1_">
				<g>
					<g>
						<g id="Layer_1-2">
							<path d="M392.4,54.7l10-7l12.3,17.5c2.1,2.8,3.7,5.8,4.9,9.1c0.7,2.5,0.5,5.2-0.5,7.6c-1.3,3-3.4,5.5-6.2,7.3
								c-3.3,2.3-6.1,3.6-8.5,4c-2.3,0.4-4.7,0-6.9-1c-2.4-1.2-4.5-2.9-6.1-5.1l8.6-8c0.7,1.1,1.6,2.1,2.6,2.9
								c0.7,0.5,1.5,0.8,2.4,0.8c0.7,0,1.4-0.3,1.9-0.7c1-0.6,1.7-1.8,1.6-3c-0.3-1.7-1-3.4-2.1-4.7L392.4,54.7L392.4,54.7z
								 M422.4,65.8l9.1-7.2c1,1.2,2.3,2.1,3.7,2.6c2,0.6,4.1,0.2,5.8-1.1c1.2-0.8,2.2-1.9,2.6-3.3c0.6-1.8-0.4-3.8-2.2-4.4
								c-0.3-0.1-0.6-0.2-0.9-0.2c-1.2-0.1-3.3,0.4-6.4,1.7C429,56,425,56.8,422,56.5c-2.9-0.3-5.6-1.8-7.2-4.3
								c-1.2-1.7-1.8-3.7-1.9-5.7c0-2.3,0.6-4.6,1.9-6.5c1.9-2.7,4.2-5,7-6.8c4.2-2.9,7.9-4.3,11.1-4.3s6.2,1.5,9,4.6l-9,7.1
								c-1.8-2.3-5.2-2.8-7.5-1l-0.3,0.3c-1,0.6-1.7,1.5-2.1,2.6c-0.3,0.8-0.1,1.7,0.4,2.4c0.4,0.5,1,0.9,1.7,0.9
								c0.8,0.1,2.2-0.3,4.2-1.2c5-2.1,8.8-3.3,11.4-3.7c2.2-0.4,4.5-0.2,6.6,0.7c1.9,0.8,3.5,2.2,4.6,3.9c1.4,2,2.2,4.4,2.3,6.9
								c0.1,2.6-0.6,5.1-2,7.3c-1.8,2.7-4.1,5-6.8,6.8c-5.5,3.8-10,5.4-13.6,4.8C427.9,70.7,424.7,68.7,422.4,65.8L422.4,65.8z"/>
						</g>
					</g>
				</g>
			</g>
		</g>
	</g>
	
		<ellipse id="SVGID_00000016759239788461831620000001603436668248037278_" transform="matrix(0.7986 -0.6018 0.6018 0.7986 47.8507 265.3789)" class="st1" cx="420.5" cy="61.2" rx="63" ry="51.8"/>
</g>
</svg>
