<svg width="0" height="0" class="hidden">
  <symbol xmlns="http://www.w3.org/2000/svg" xmlns:xlink="http://www.w3.org/1999/xlink" viewBox="0 0 7.24 7.33" id="star">
    <defs>
      <linearGradient id="linear-gradient" x1="3.62" y1="6.89" x2="3.62" gradientUnits="userSpaceOnUse">
        <stop offset="0" stop-color="#bd1c8a"></stop>
        <stop offset="1" stop-color="#961756"></stop>
      </linearGradient>
    </defs>
    <title>Asset 3</title>
    <g>
      <g id="Layer_2">
        <g id="Layer_1-2">
          <polygon points="4.89 2.06 7.24 2.63 5.67 4.47 5.86 6.89 3.62 5.96 1.38 6.89 1.57 4.47 0 2.63 2.35 2.06 3.62 0 4.89 2.06 4.89 2.06"></polygon>
          <path d="M3.62,6l-2.24.93v.44L3.62,6.4l2.24.93V6.89L3.62,6Zm-2-1.49L0,2.63v.44L1.54,4.88l0-.41Zm4.1,0,0,.41L7.24,3.07V2.63L5.67,4.47Z"></path>
          <polygon points="0.43 3.14 2.35 2.68 3.62 0.61 4.89 2.68 6.81 3.14 7.24 2.63 4.89 2.06 4 0.61 3.62 0 3.24 0.61 2.35 2.06 0 2.63 0.43 3.14 0.43 3.14"></polygon>
        </g>
      </g>
    </g>
  </symbol>
</svg>