<svg width="0" height="0" class="hidden">
  <symbol xmlns="http://www.w3.org/2000/svg" xmlns:xlink="http://www.w3.org/1999/xlink" viewBox="0 0 6.78 6.73" id="tick">
    <defs>
      <linearGradient id="linear-gradient" x1="3.39" y1="6.33" x2="3.39" gradientUnits="userSpaceOnUse">
        <stop offset="0" stop-color="#bd1c8a"></stop>
        <stop offset="1" stop-color="#961756"></stop>
      </linearGradient>
    </defs>
    <title>Asset 5</title>
    <g>
      <g id="Layer_2">
        <g id="Layer_1-2">
          <polygon points="3.64 6.33 6.78 0.9 5.22 0 2.87 4.08 1.56 1.82 0 2.72 2.09 6.33 3.64 6.33 3.64 6.33"></polygon>
          <polygon points="3.64 6.33 2.09 6.33 0 2.72 0 3.12 2.09 6.73 3.64 6.73 6.78 1.3 6.78 0.9 3.64 6.33 3.64 6.33"></polygon>
          <polygon points="1.56 1.82 0 2.72 0.24 3.14 1.56 2.38 2.87 4.65 5.22 0.56 6.54 1.32 6.78 0.9 6.2 0.56 5.22 0 4.9 0.56 2.87 4.08 1.56 1.82 1.56 1.82"></polygon>
        </g>
      </g>
    </g>
  </symbol>
</svg>